<svg xmlns="http://www.w3.org/2000/svg" data-name="Layer 5" viewBox="0 0 24 24"><circle cx="17" cy="5.5" r="3.25" fill="#807a6e"/><circle cx="7" cy="5.5" r="3.25" fill="#807a6e"/><circle cx="12" cy="12.5" r="9.25" fill="#ea9672"/><path fill="#f1b695" d="M12,12.25a7.2177,7.2177,0,0,0-7.1357,5.9873.2476.2476,0,0,0,.0546.2031,9.23,9.23,0,0,0,14.1622,0,.2476.2476,0,0,0,.0546-.2031A7.2177,7.2177,0,0,0,12,12.25Z"/><circle cx="15" cy="9.5" r="1.25" fill="#807a6e"/><circle cx="9" cy="9.5" r="1.25" fill="#807a6e"/><path fill="#f5f5f5" d="M21.25 12.5a2.09 2.09 0 0 1-.01.25H19a.25.25 0 0 1 0-.5h2.24A2.09 2.09 0 0 1 21.25 12.5zM21.08 14.25c-.03.17-.07.33-.11.5H19a.25.25 0 0 1 0-.5zM5.25 12.5a.2476.2476 0 0 1-.25.25H2.76a3.13 3.13 0 0 1 0-.5H5A.2476.2476 0 0 1 5.25 12.5zM5.25 14.5a.2476.2476 0 0 1-.25.25H3.03c-.04-.17-.08-.33-.11-.5H5A.2476.2476 0 0 1 5.25 14.5z"/><circle cx="15.5" cy="9" r=".5" fill="#f5f5f5"/><circle cx="9.5" cy="9" r=".5" fill="#f5f5f5"/><path fill="#f5f5f5" d="M12,16.25H10a.25.25,0,0,0-.25.25v3a1.25,1.25,0,0,0,2.5,0v-3A.25.25,0,0,0,12,16.25Z"/><path fill="#f5f5f5" d="M14,16.25H12a.25.25,0,0,0-.25.25v3a1.25,1.25,0,0,0,2.5,0v-3A.25.25,0,0,0,14,16.25Z"/><circle cx="12" cy="15.5" r="3.25" fill="#f8d5b9"/><circle cx="12" cy="13.5" r="2.25" fill="#fa8f82"/></svg>